<svg xmlns="http://www.w3.org/2000/svg" xmlns:xlink="http://www.w3.org/1999/xlink" version="1.1" x="0px" y="0px" viewBox="0 0 255.1 255.1" enable-background="new 0 0 255.1 255.1" xml:space="preserve"><defs><style>.a{fill:#FFF;}</style></defs><g><path class="a" d="M214.2,82.7c5.9-1.7,10-0.4,12.6,3.8c2.3,3.7,1.8,8.3-1.2,11.6c-1.8,1.9-4,2.9-6.6,3.1c-2.6,0.1-4.9-0.8-7-2.5   c-0.1,2.2-0.1,4.3-0.4,6.3c-1.3,7.6-4.5,14.4-8.6,20.8c-7,10.8-16.4,19-27.3,25.6c-12.2,7.3-25.4,12-39.3,15.1   c-5.6,1.2-11.4,2.1-17,3.1c-0.8,0.1-1.2,0.5-1.5,1.2c-0.5,1.4-1.2,2.8-1.9,4.1c-1.7,3.1-3.4,3.8-6.9,2.9c-3.8-1-6.5-3.3-8.3-6.7   c-0.4-0.7-0.8-1-1.7-1.2c-4-0.7-8.1-1.4-11.8-3.4c-0.3-0.1-0.8-0.1-1.1,0.1c-3.4,1.7-6.8,3.5-10.2,5.3c-0.4,0.2-0.8,0.6-1.1,1   c-14,20.4-28,40.8-42,61.3c-1.2,1.7-2.6,2.3-4.6,1.9c-1.1-0.2-2.3-0.3-3.4-0.3c-1.6-0.1-3.1,0.3-4.5,1.3c-1.1,0.8-2.3,1.4-3.5,1.7   c-2.2,0.4-3.9-0.6-5.1-2.5c-1.2-1.9-1.1-3.8,0.1-5.6c2.9-4.4,5.8-8.8,8.7-13.2c11.7-17.5,23.3-35.1,35-52.6   c0.3-0.4,0.5-0.8,0.9-1.4c-2.6,0.3-5.1,0.6-7.5,0.8c-2.2,0.2-4.3,0.5-6.5,0.7c-2.2,0.2-4.3-1.2-5.1-3.3c-0.8-2.2-0.2-4.4,1.7-5.8   c4-3,8.3-5.2,13-6.9c0.9-0.3,1.5-0.8,2-1.7c1.9-3.9,4.9-6.9,8.1-9.8c12.5-11.4,25.2-22.7,38.4-33.2c5-4,10.2-7.9,15.6-11.3   c4.1-2.6,8.8-4.4,13.1-6.7c9-4.7,18-9.5,27-14c4-2,6.3-5.4,8.8-8.7c4.3-5.8,8.7-11.6,14-16.7c2-2,4.6-3.1,7.1-4.2   c4.4-1.9,8.8-3.6,13.6-4.1c7.1-0.8,14.1-0.3,20.6,2.8c1.7,0.8,3.2,0.9,5,0.7c5.9-0.6,11.7-0.4,17.2,2.1c1.2,0.6,2.4,1.3,3.5,2.1   c1.5,1,1.9,2.6,1.3,4.2c-0.5,1.5-1.9,2.4-3.6,2.5c-3.4,0.1-6.7,0-10.1,0.3c-3.3,0.2-6.6,0.8-9.6,2.3c-1.3,0.6-2.2,1.5-2.7,2.9   c-3.1,7.6-5.4,15.5-7.1,23.5C214.2,82.1,214.2,82.3,214.2,82.7z M240.6,48.2c0-0.1,0-0.2,0.1-0.3c-1.3-0.4-2.7-0.9-4-1.2   c-4.3-0.9-8.6-0.8-12.9-0.1c-1.2,0.2-2.4,0.3-3.5-0.5c-3.5-2.3-7.5-3.1-11.5-3.5c-6.8-0.7-13.3,0.6-19.5,3.3   c-3.2,1.4-6.4,2.7-8.7,5.6c-3.6,4.4-7.2,8.8-10.8,13.1c-2.7,3.2-4.4,7.2-8.1,9.4c0,0,0,0.1,0,0.1c3,0.8,5.9,1.5,8.8,2.4   c5,1.5,9.8,3.4,13.7,6.9c3.1,2.8,4.7,6.2,3.8,10.4c-0.8,3.5-2.8,6.2-5.3,8.7c-0.3,0.3-0.7,0.4-1,0.5c-1,0.2-1.8-0.2-2.3-1.2   c-0.5-1-0.2-1.9,0.5-2.7c1.5-1.6,2.9-3.4,3.6-5.5c0.6-1.7,0.4-3.4-0.6-4.9c-1.4-2.2-3.5-3.6-5.7-4.7c-6.6-3.3-13.6-4.9-20.8-6   c-0.6-0.1-1.3,0.1-1.9,0.4c-8.4,4.3-16.8,8.6-25.2,12.9c-4.2,2.2-8.6,4.1-12.6,6.6c-7.8,5-14.9,10.9-21.9,16.9   c-10.2,8.8-20.3,17.8-30.4,26.7c-2.7,2.4-5.1,5.1-6.5,8.5c-0.6,1.3-1.4,2.2-2.8,2.6c-4.6,1.6-8.9,3.6-12.8,6.5   c-0.3,0.2-0.4,0.7-0.5,1c0.3,0.1,0.7,0.3,1,0.3c4.8-0.5,9.6-1,14.3-1.6c1.7-0.2,3.2,0.1,4.2,1.6c1,1.6,0.7,3.1-0.3,4.6   c-10,15-19.9,30-29.9,45c-5,7.5-10,15-14.9,22.5c-0.3,0.5-0.9,1-0.2,1.6c0.6,0.6,1.2,0,1.6-0.3c2.2-1.9,4.7-2.5,7.5-2.4   c1.1,0,2.1,0.1,3.2,0.3c0.9,0.2,1.3-0.1,1.8-0.8c13.9-20.3,27.9-40.7,41.8-61c0.4-0.6,1-1.2,1.6-1.5c4-2.1,8-4.1,12-6.2   c1.1-0.6,2.3-0.6,3.3,0c3.5,2.2,7.5,2.8,11.5,3.4c2.1,0.3,3.5,1.1,4.5,3.1c1.2,2.6,3.2,4.5,6.2,5c0.4,0.1,1-0.2,1.2-0.5   c0.8-1.6,1.6-3.1,2.2-4.8c0.7-1.8,1.8-2.7,3.7-3c4.8-0.8,9.6-1.5,14.3-2.4c11.1-2.2,21.8-5.5,32.1-10.4c11.5-5.4,22-12.5,30.1-22.4   c7.5-9,12.8-19,13.3-31.2c0.6-14.6,4.4-28.6,9.7-42.2c1.1-2.8,3-4.4,5.6-5.6c3.4-1.6,7.1-2.2,10.8-2.5   C235.9,48.4,238.3,48.4,240.6,48.2z M223.7,91.6c0-2.9-2.3-5.3-5.2-5.3c-2.8,0-5.1,2.3-5.2,5.1c-0.1,2.9,2.2,5.3,5.1,5.3   C221.3,96.8,223.6,94.6,223.7,91.6z"/><path class="a" d="M148.2,208.9c-2.5-3.8-4.9-7.3-7.4-10.9c-2.4-3.5-4.8-7-7.1-10.6c-0.4-0.6-0.7-1.5-0.7-2.3c0-0.9,0.7-1.5,1.7-1.7   c1-0.2,1.8,0.2,2.4,1.1c1.9,2.8,3.8,5.6,5.7,8.4c3.4,5,6.8,10.1,10.2,15.2c0.4,0.6,0.8,0.8,1.5,0.8c0.9-0.1,1.9,0,2.8,0   c1.3,0,2.2,0.9,2.2,2.1c0,1.2-0.8,2.1-2,2.3c-0.2,0-0.4,0-0.6,0c-12.2,0-24.5,0-36.7,0c-2,0-3.2-1.4-2.5-3.1c0.4-1,1.2-1.4,2.2-1.4   c2.6,0,5.2,0,8.1,0c-0.3-0.5-0.5-0.8-0.7-1.1c-5.5-8.2-11-16.3-16.6-24.4c-0.1-0.2-0.3-0.4-0.4-0.6c-0.7-1.2-0.4-2.4,0.6-3.1   c0.9-0.7,2.3-0.4,3.1,0.7c1.3,1.8,2.5,3.6,3.7,5.4c5.1,7.5,10.1,14.9,15.2,22.4c0.2,0.4,0.7,0.8,1.1,0.8   C138.7,209,143.3,208.9,148.2,208.9z"/><path class="a" d="M130.4,180.3c-2.5-0.1-5.7-1.4-8.8-2.9c-0.9-0.4-1.7-0.9-2.6-1.3c-1-0.5-1.6-1.3-1.4-2.5c0.2-1.1,0.9-1.6,2-1.8   c5.4-1,10.7-2,16.1-3c1.8-0.3,2.8,0.4,3,2.3c0.1,1.4,0.2,2.9-0.1,4.3C137.8,178.7,135.3,180.4,130.4,180.3z M127.6,174.9   c0,0.2,0,0.3-0.1,0.5c1.6,0.2,3.2,0.5,4.8,0.5c1.3,0,1.8-0.6,1.9-2.2C132,174.1,129.8,174.5,127.6,174.9z"/><path class="a" d="M70.8,160.4c-1.3,0-2.3-0.7-2.5-1.7c-0.2-1,0.3-2.1,1.4-2.5c1.7-0.6,3.4-1.1,5.1-1.7c13.4-4.5,26.2-10.2,38.6-17   c3-1.6,5.9-3.4,8.8-5.1c1.3-0.7,2.6-0.6,3.3,0.5c0.7,1.1,0.4,2.5-1,3.3c-5.8,3.2-11.6,6.6-17.5,9.6c-10.9,5.6-22.2,10.2-33.8,13.9   C72.3,160,71.4,160.2,70.8,160.4z"/><path class="a" d="M203.8,51c0,1.7-1.3,3.1-3.1,3.1c-1.7,0-3.2-1.5-3.2-3.2c0-1.7,1.4-3.1,3.1-3.1C202.4,47.8,203.8,49.2,203.8,51z"/></g></svg>
